<svg data-v-0dd9719b="" version="1.0" xmlns="http://www.w3.org/2000/svg" xmlns:xlink="http://www.w3.org/1999/xlink" width="100%" height="100%" viewBox="0 0 340.000000 250.000000" preserveAspectRatio="xMidYMid meet" color-interpolation-filters="sRGB" style="margin: auto;"> <rect data-v-0dd9719b="" x="0" y="0" width="100%" height="100%" fill="#fff" fill-opacity="1" class="background"></rect> <rect data-v-0dd9719b="" x="0" y="0" width="100%" height="100%" fill="url(#watermark)" fill-opacity="1" class="watermarklayer"></rect> <g data-v-0dd9719b="" fill="#f39800" class="icon-text-wrapper icon-svg-group iconsvg" transform="translate(59.88500213623047,95.01229667663574)"><g class="iconsvg-imagesvg" transform="translate(0,0)"><g><rect fill="#f39800" fill-opacity="0" stroke-width="2" x="0" y="0" width="60" height="59.975410081866436" class="image-rect"></rect> <svg x="0" y="0" width="60" height="59.975410081866436" filtersec="colorsb2285108068" class="image-svg-svg primary" style="overflow: visible;"><svg xmlns="http://www.w3.org/2000/svg" viewBox="0 0 72.79000091552734 72.76000213623047"><g><g><path fill="#f39800" d="M0 25.56h21.67v47.2H0zM51.12 25.56h21.67v47.2H51.12z"></path><path fill="#c30d23" d="M25.57 25.56h21.66v47.2H25.57z"></path><path fill="#f39800" d="M0 0h72.78v21.66H0z"></path></g></g></svg></svg> <!----></g></g> <g transform="translate(67,2.533414840698242)"><g data-gra="path-name" fill-rule="" class="tp-name iconsvg-namesvg" transform="translate(0,0)"><g transform="scale(1)"><g><path d="M2.65-20.25Q7.56-22.95 10.62-25.72 13.68-28.48 16.92-32.76L16.92-32.76Q18.45-34.88 19.71-34.88L19.71-34.88Q20.88-34.88 22.14-33.07L22.14-33.07Q27.58-25.29 36.72-20.2L36.72-20.2Q37.17-19.93 37.17-19.3L37.17-19.3Q37.17-18.95 37.03-18.68L37.03-18.68Q36.9-18.45 36.63-18.27 36.36-18.09 36.05-18.09L36.05-18.09Q35.68-18.09 35.46-18.27L35.46-18.27Q26.59-23.4 20.84-31.05L20.84-31.05Q20.47-31.59 20.16-31.9 19.84-32.22 19.66-32.22L19.66-32.22Q19.48-32.22 19.19-31.9 18.9-31.59 18.54-31.05L18.54-31.05Q15.79-27.4 12.04-24.12 8.28-20.84 3.87-18.27L3.87-18.27Q3.55-18.09 3.24-18.09L3.24-18.09Q2.61-18.09 2.21-18.63L2.21-18.63Q2.07-18.86 2.07-19.17L2.07-19.17Q2.07-19.89 2.65-20.25L2.65-20.25ZM9.76-20.56Q9.76-20.97 10.06-21.33 10.35-21.69 10.89-21.69L10.89-21.69 28.35-21.69Q28.89-21.69 29.18-21.33 29.47-20.97 29.47-20.56L29.47-20.56Q29.47-20.16 29.18-19.8 28.89-19.44 28.35-19.44L28.35-19.44 10.89-19.44Q10.35-19.44 10.06-19.8 9.76-20.16 9.76-20.56L9.76-20.56ZM7.25-3.1L7.25-6.79Q7.25-9.36 8.91-11.25 10.57-13.14 13.99-13.14L13.99-13.14 25.24-13.14Q28.66-13.14 30.33-11.25 31.99-9.36 31.99-6.79L31.99-6.79 31.99-3.1Q31.99-0.54 30.33 1.35 28.66 3.24 25.24 3.24L25.24 3.24 13.99 3.24Q10.57 3.24 8.91 1.35 7.25-0.54 7.25-3.1L7.25-3.1ZM9.49-3.33Q9.49-1.57 10.6-0.29 11.7 0.99 14.45 0.99L14.45 0.99 24.79 0.99Q27.54 0.99 28.64-0.29 29.74-1.57 29.74-3.33L29.74-3.33 29.74-6.57Q29.74-8.32 28.66-9.61 27.58-10.89 24.79-10.89L24.79-10.89 14.45-10.89Q11.65-10.89 10.57-9.61 9.49-8.32 9.49-6.57L9.49-6.57 9.49-3.33ZM49.19-33.07Q51.3-33.07 52.54-31.5 53.77-29.92 53.77-27.58L53.77-27.58 53.77-2.52Q53.77 0.09 52.81 1.3 51.84 2.52 49.5 2.92L49.5 2.92Q48.87 3.01 48.44 2.7 48.02 2.38 48.02 1.75L48.02 1.75Q48.02 0.9 49.05 0.67L49.05 0.67Q50.13 0.49 50.63 0.09 51.12-0.32 51.32-1.24 51.52-2.16 51.52-4L51.52-4 51.52-10.44 46.26-10.44Q46.08-6.43 45.47-3.24 44.87-0.04 43.56 3.1L43.56 3.1Q43.16 4.18 42.12 3.92L42.12 3.92Q41.8 3.82 41.56 3.55 41.31 3.28 41.31 2.88L41.31 2.88Q41.31 2.61 41.45 2.34L41.45 2.34Q43.11-1.67 43.6-5.56 44.1-9.45 44.1-16.11L44.1-16.11 44.1-27.58Q44.1-29.92 45.34-31.5 46.58-33.07 48.69-33.07L48.69-33.07 49.19-33.07ZM74.92-2.83Q75.38-2.83 75.69-2.56 76-2.29 76-1.89L76-1.89Q76-1.75 75.91-1.48L75.91-1.48Q75.33 0.54 72.85 1.57 70.38 2.61 67.14 2.61L67.14 2.61Q64.66 2.61 62.1 1.93L62.1 1.93Q59.94 1.3 58.77-0.49 57.6-2.29 57.6-5.71L57.6-5.71 57.6-25.65Q57.6-28.71 59.24-30.78 60.88-32.85 64.35-32.85L64.35-32.85 67.68-32.85Q71.14-32.85 72.79-30.78 74.43-28.71 74.43-25.65L74.43-25.65 74.43-21.82Q74.43-18.77 72.79-16.7 71.14-14.63 67.68-14.63L67.68-14.63 59.85-14.63 59.85-7.06Q59.85-3.78 60.55-2.27 61.24-0.77 62.73-0.32L62.73-0.32Q65.11 0.4 67.77 0.4L67.77 0.4Q69.93 0.4 71.55-0.18 73.17-0.77 73.8-2.02L73.8-2.02Q74.25-2.83 74.92-2.83L74.92-2.83ZM48.91-30.82Q47.7-30.82 47.02-29.81 46.35-28.8 46.35-27.36L46.35-27.36 46.35-22.63 51.52-22.63 51.52-27.36Q51.52-28.8 50.85-29.81 50.17-30.82 48.96-30.82L48.96-30.82 48.91-30.82ZM59.85-25.43L59.85-16.88 64.89-16.88 64.89-30.6 64.8-30.6Q62.01-30.6 60.93-29.18 59.85-27.77 59.85-25.43L59.85-25.43ZM72.18-25.43Q72.18-27.77 71.1-29.18 70.02-30.6 67.23-30.6L67.23-30.6 67.14-30.6 67.14-16.88 67.23-16.88Q70.02-16.88 71.1-18.29 72.18-19.71 72.18-22.05L72.18-22.05 72.18-25.43ZM46.3-12.69L51.52-12.69 51.52-20.38 46.35-20.38 46.35-16.11Q46.35-13.77 46.3-12.69L46.3-12.69ZM96.66-17.55Q97.2-17.55 97.49-17.19 97.78-16.83 97.78-16.43L97.78-16.43Q97.78-16.02 97.49-15.66 97.2-15.3 96.66-15.3L96.66-15.3 91.08-15.3Q90.67-9.81 88.88-5.42 87.08-1.03 83.34 3.46L83.34 3.46Q82.94 3.92 82.44 3.92L82.44 3.92Q82.13 3.92 81.77 3.65L81.77 3.65Q81.31 3.28 81.31 2.75L81.31 2.75Q81.31 2.43 81.58 2.07L81.58 2.07Q85.32-2.38 86.92-6.21 88.52-10.04 88.83-15.3L88.83-15.3 81.67-15.3Q81.14-15.3 80.84-15.66 80.55-16.02 80.55-16.43L80.55-16.43Q80.55-16.83 80.84-17.19 81.14-17.55 81.67-17.55L81.67-17.55 88.97-17.55 88.97-19.39 88.97-27.4 85.86-27.4Q84.78-24.25 83.66-21.73L83.66-21.73Q83.43-21.06 82.67-21.06L82.67-21.06Q82.48-21.06 82.22-21.15L82.22-21.15Q81.9-21.24 81.7-21.53 81.5-21.82 81.5-22.18L81.5-22.18Q81.5-22.27 81.58-22.63L81.58-22.63Q83.92-28.08 85.86-34.78L85.86-34.78Q86.04-35.28 86.44-35.48 86.85-35.68 87.25-35.55L87.25-35.55Q87.61-35.41 87.89-35.03 88.16-34.65 88.02-34.16L88.02-34.16Q87.53-32.4 86.63-29.65L86.63-29.65 95.98-29.65Q96.53-29.65 96.82-29.29 97.11-28.93 97.11-28.53L97.11-28.53Q97.11-28.13 96.82-27.77 96.53-27.4 95.98-27.4L95.98-27.4 91.22-27.4 91.22-19.39Q91.22-18.13 91.17-17.55L91.17-17.55 96.66-17.55ZM107.55-31.41Q109.48-31.41 110.79-30.49 112.09-29.56 112.75-28.1 113.4-26.64 113.4-25.06L113.4-25.06 113.4-3.28Q113.4-1.71 112.75-0.25 112.09 1.21 110.79 2.14 109.48 3.06 107.55 3.06L107.55 3.06 105.61 3.06Q103.68 3.06 102.38 2.14 101.07 1.21 100.42-0.25 99.77-1.71 99.77-3.28L99.77-3.28 99.77-25.06Q99.77-26.64 100.42-28.1 101.07-29.56 102.38-30.49 103.68-31.41 105.61-31.41L105.61-31.41 107.55-31.41ZM111.15-3.51L111.15-24.84Q111.15-26.55 110.23-27.86 109.31-29.16 107.1-29.16L107.1-29.16 106.06-29.16Q103.86-29.16 102.94-27.86 102.02-26.55 102.02-24.84L102.02-24.84 102.02-3.51Q102.02-1.8 102.98-0.49 103.95 0.81 106.06 0.81L106.06 0.81 107.1 0.81Q109.22 0.81 110.18-0.49 111.15-1.8 111.15-3.51L111.15-3.51ZM91.75-8.23L96.97-1.3Q97.2-1.03 97.2-0.63L97.2-0.63Q97.2-0.04 96.75 0.27L96.75 0.27Q96.44 0.49 96.03 0.49L96.03 0.49Q95.44 0.49 95.17 0.04L95.17 0.04 89.95-6.88Q89.73-7.15 89.73-7.56L89.73-7.56Q89.73-8.14 90.18-8.46L90.18-8.46Q90.5-8.69 90.86-8.69L90.86-8.69Q91.39-8.69 91.75-8.23L91.75-8.23ZM123.08-23.63Q122.67-23.63 122.31-23.92 121.95-24.21 121.95-24.75L121.95-24.75 121.95-26.14Q121.95-28.48 123.5-29.9 125.06-31.32 128.25-31.32L128.25-31.32 136.26-31.32 136.26-35.23Q136.26-35.77 136.62-36.07 136.98-36.36 137.38-36.36L137.38-36.36Q137.79-36.36 138.15-36.07 138.51-35.77 138.51-35.23L138.51-35.23 138.51-31.32 147.56-31.32Q150.7-31.32 152.28-29.79 153.85-28.26 153.85-26.14L153.85-26.14 153.85-24.66Q153.85-24.12 153.5-23.83 153.13-23.54 152.73-23.54L152.73-23.54Q152.32-23.54 151.97-23.83 151.6-24.12 151.6-24.66L151.6-24.66 151.6-25.7Q151.6-27.09 150.59-28.08 149.58-29.07 147.1-29.07L147.1-29.07 128.7-29.07Q126.22-29.07 125.21-28.08 124.2-27.09 124.2-25.7L124.2-25.7 124.2-24.75Q124.2-24.21 123.84-23.92 123.48-23.63 123.08-23.63L123.08-23.63ZM154.44-11.92Q154.84-11.88 155.07-11.52 155.3-11.16 155.3-10.8L155.3-10.8Q155.3-10.35 154.91-10.01 154.53-9.67 153.94-9.72L153.94-9.72Q144.54-11.16 137.79-14.17L137.79-14.17Q131.18-11.29 121.32-9.27L121.32-9.27Q120.83-9.18 120.4-9.38 119.97-9.58 119.83-9.95L119.83-9.95Q119.79-10.04 119.79-10.3L119.79-10.3Q119.79-10.66 119.97-10.98 120.15-11.29 120.51-11.34L120.51-11.34Q129.28-13.18 135.27-15.43L135.27-15.43Q132.3-17.01 129.65-19.08L129.65-19.08Q129.28-19.3 129.28-19.8L129.28-19.8Q129.28-20.25 129.69-20.65L129.69-20.65Q129.96-20.93 130.37-20.93L130.37-20.93Q130.81-20.93 131.22-20.56L131.22-20.56Q134.24-18.27 137.75-16.43L137.75-16.43Q142.38-18.45 145.13-20.93L145.13-20.93Q145.49-21.24 145.73-21.49 145.98-21.73 145.98-21.87L145.98-21.87Q145.98-22.05 145.6-22.09 145.22-22.14 144.31-22.14L144.31-22.14 130.5-22.14Q127.39-19.04 123.66-16.52L123.66-16.52Q123.3-16.29 122.94-16.29L122.94-16.29Q122.44-16.29 122.08-16.65L122.08-16.65Q121.77-16.96 121.77-17.46L121.77-17.46Q121.77-18 122.17-18.22L122.17-18.22Q127.8-21.87 131.81-26.86L131.81-26.86Q132.3-27.49 132.84-27.49L132.84-27.49Q133.06-27.49 133.34-27.36L133.34-27.36Q133.6-27.22 133.81-26.93 134.01-26.64 134.01-26.37L134.01-26.37Q134.01-26.05 133.83-25.88L133.83-25.88Q133.02-24.88 132.57-24.39L132.57-24.39 146.38-24.39Q147.38-24.39 147.96-23.78 148.54-23.18 148.54-22.27L148.54-22.27Q148.54-21.64 148.23-21.02 147.91-20.38 147.33-19.89L147.33-19.89Q144.09-17.23 140.26-15.3L140.26-15.3Q143.19-14.13 146.23-13.46 149.26-12.78 154.44-11.92L154.44-11.92ZM143.91-8.73Q149.76-8.73 149.76-3.28L149.76-3.28 149.76-2.25Q149.76 3.19 143.91 3.19L143.91 3.19 131.85 3.19Q126 3.19 126-2.25L126-2.25 126-3.28Q126-8.73 131.85-8.73L131.85-8.73 143.91-8.73ZM147.51-2.48L147.51-3.06Q147.51-6.48 143.46-6.48L143.46-6.48 132.3-6.48Q129.87-6.48 129.06-5.49 128.25-4.5 128.25-3.06L128.25-3.06 128.25-2.48Q128.25-1.03 129.06-0.04 129.87 0.94 132.3 0.94L132.3 0.94 143.46 0.94Q147.51 0.94 147.51-2.48L147.51-2.48Z" transform="translate(-2.069999933242798, 36.36000061035156)"></path></g> <!----> <!----> <!----> <!----> <!----> <!----> <!----></g></g> <g data-gra="path-slogan" fill-rule="" class="tp-slogan iconsvg-slogansvg" fill="#f39800" transform="translate(40.54499816894531,46.330448150634766)"><!----> <!----> <g transform="scale(1, 1)"><g transform="scale(1)"><path d="M2.06-5.06L6.56-5.06L6.56-8.58L7.73-8.58L7.73 0L6.56 0L6.56-3.98L2.06-3.98L2.06 0L0.89 0L0.89-8.58L2.06-8.58L2.06-5.06ZM10.83-1.03L15.98-1.03L15.98 0L9.66 0L9.66-8.58L15.89-8.58L15.89-7.59L10.83-7.59L10.83-4.92L15.52-4.92L15.52-3.89L10.83-3.89L10.83-1.03ZM23.02-3.89L18.80-3.89L18.80 0L17.63 0L17.63-8.58L23.58-8.58L23.58-7.59L18.80-7.59L18.80-4.92L23.02-4.92L23.02-3.89ZM26.06-1.03L31.22-1.03L31.22 0L24.89 0L24.89-8.58L31.13-8.58L31.13-7.59L26.06-7.59L26.06-4.92L30.75-4.92L30.75-3.89L26.06-3.89L26.06-1.03ZM32.91-8.58L34.08-8.58L34.08 0L32.91 0L32.91-8.58ZM40.22-1.03L45.52-1.03L45.52 0L38.77 0L38.77-0.94L44.02-7.59L39.14-7.59L39.14-8.58L45.52-8.58L45.52-7.59L40.22-1.03ZM47.81-5.06L52.31-5.06L52.31-8.58L53.48-8.58L53.48 0L52.31 0L52.31-3.98L47.81-3.98L47.81 0L46.64 0L46.64-8.58L47.81-8.58L47.81-5.06ZM55.45-8.58L56.63-8.58L56.63 0L55.45 0L55.45-8.58ZM61.13-4.31L59.77-3.05L59.77 0L58.59 0L58.59-8.58L59.77-8.58L59.77-4.41L63.94-8.58L65.58-8.58L61.97-5.11L65.67 0L64.13 0L61.13-4.31ZM67.88-1.03L73.03-1.03L73.03 0L66.70 0L66.70-8.58L72.94-8.58L72.94-7.59L67.88-7.59L67.88-4.92L72.56-4.92L72.56-3.89L67.88-3.89L67.88-1.03Z" transform="translate(-0.890625, 8.578125)"></path></g></g></g></g></g><defs v-gra="od"></defs></svg>